<?xml version="1.0" encoding="utf-8"?>
<!-- Generator: Adobe Illustrator 19.1.1, SVG Export Plug-In . SVG Version: 6.00 Build 0)  -->
<svg version="1.1" id="Слой_1" xmlns="http://www.w3.org/2000/svg" xmlns:xlink="http://www.w3.org/1999/xlink" x="0px" y="0px"
	 viewBox="0 0 60 60" style="enable-background:new 0 0 60 60;" xml:space="preserve">
<style type="text/css">
	.st0{fill:#A0A3A5;}
	.st1{fill:#A2A2A3;}
	.st2{fill:none;stroke:#313A8C;stroke-width:4;stroke-miterlimit:10;}
	.st3{fill:none;stroke:#989898;stroke-width:4;stroke-miterlimit:10;}
	.st4{fill:none;stroke:#093F89;stroke-miterlimit:10;}
	.st5{fill:#093F89;}
	.st6{fill:none;stroke:#093F89;stroke-width:0.25;stroke-miterlimit:10;}
	.st7{font-family:'MyriadPro-Regular';}
	.st8{font-size:4px;}
</style>
<path class="st0" d="M40.3,28.2c0,0-0.7-2.1-0.4-2c0.2,0.1,0.3-0.4,0.3-0.4c0-0.1-0.5-1.3-0.5-1.4s0.2-0.6,0.1-0.4
	c-0.1,0.2,0,1.2,0,1.2l0.7,3.1"/>
<path class="st1" d="M22.6,27.2c0,0,0.9-2.1,0.6-2c-0.3,0.1-0.4-0.4-0.4-0.4c0-0.1,0.6-1.3,0.6-1.4s-0.2-0.6-0.1-0.4
	c0.1,0.2,0,1.2,0,1.2l-0.9,3.1"/>
<path class="st2" d="M8.3,11.4"/>
<path class="st2" d="M11,12.6c4.8-5,11.7-8.1,19.4-8.1c14.6,0,26.5,11.3,26.5,25.3S45.1,55.1,30.4,55.1S3.9,43.7,3.9,29.8"/>
<path class="st3" d="M49.7,29.5c0,10-8.5,18.1-19,18.1s-19-8.1-19-18.1c0-9.7,8.1-17.7,18.2-18.1"/>
<path class="st4" d="M18.9,31"/>
<path class="st4" d="M39,36.6c-2.2,2.3-5.3,3.7-8.6,3.7c-3.3,0-6.3-1.3-8.4-3.5"/>
<path class="st4" d="M39,36.6"/>
<path class="st4" d="M42,33.4"/>
<path class="st4" d="M18.9,32.7c-0.2-1-0.3-2-0.3-3c0-7.3,5.3-13.2,11.9-13.2s11.9,5.9,11.9,13.2c0,1.1-0.1,2.1-0.3,3.1"/>
<rect x="17" y="30.1" class="st5" width="1.4" height="0.8"/>
<rect x="16.8" y="27.1" transform="matrix(-0.9998 -1.787003e-002 1.787003e-002 -0.9998 34.5879 55.4209)" class="st5" width="1.5" height="0.8"/>
<rect x="17.7" y="23.6" transform="matrix(-0.9261 -0.3772 0.3772 -0.9261 26.4485 53.1648)" class="st5" width="1.4" height="0.8"/>
<rect x="19.2" y="20.8" transform="matrix(-0.7609 -0.6489 0.6489 -0.7609 21.32 50.3845)" class="st5" width="1.5" height="0.8"/>
<rect x="21.4" y="18.4" transform="matrix(-0.5875 -0.8092 0.8092 -0.5875 19.8433 47.6862)" class="st5" width="1.4" height="0.8"/>
<rect x="24.2" y="16.4" transform="matrix(-0.3975 -0.9176 0.9176 -0.3975 19.3387 46.2541)" class="st5" width="1.4" height="0.8"/>
<rect x="27.5" y="15.1" transform="matrix(-0.1228 -0.9924 0.9924 -0.1228 16.231 45.4787)" class="st5" width="1.4" height="0.8"/>
<rect x="42.6" y="30.2" class="st5" width="1.4" height="0.8"/>
<rect x="42.8" y="27.1" transform="matrix(0.9998 -1.787003e-002 1.787003e-002 0.9998 -0.4847 0.7816)" class="st5" width="1.4" height="0.8"/>
<rect x="42" y="23.8" transform="matrix(0.9261 -0.3772 0.3772 0.9261 -5.9755 17.9026)" class="st5" width="1.4" height="0.8"/>
<rect x="40.6" y="21" transform="matrix(0.7609 -0.6489 0.6489 0.7609 -4.0551 31.9218)" class="st5" width="1.4" height="0.8"/>
<rect x="38.2" y="18.3" transform="matrix(0.5875 -0.8092 0.8092 0.5875 0.928 39.1802)" class="st5" width="1.4" height="0.8"/>
<rect x="35.5" y="16.4" transform="matrix(0.3975 -0.9176 0.9176 0.3975 6.4271 43.3481)" class="st5" width="1.4" height="0.8"/>
<rect x="31.9" y="15.1" transform="matrix(0.1228 -0.9924 0.9924 0.1228 13.1664 45.9093)" class="st5" width="1.4" height="0.8"/>
<rect x="21.1" y="37.7" transform="matrix(-0.5875 0.8092 -0.8092 -0.5875 65.3836 42.8648)" class="st5" width="1.4" height="0.8"/>
<rect x="24.4" y="39.5" transform="matrix(-0.3975 0.9176 -0.9176 -0.3975 71.7054 32.8444)" class="st5" width="1.4" height="0.8"/>
<rect x="27.8" y="40.6" transform="matrix(-0.1228 0.9924 -0.9924 -0.1228 72.675 17.7606)" class="st5" width="1.4" height="0.8"/>
<rect x="38.4" y="37.6" transform="matrix(0.5875 0.8092 -0.8092 0.5875 46.9328 -15.9477)" class="st5" width="1.4" height="0.8"/>
<rect x="35.7" y="39.4" transform="matrix(0.3975 0.9176 -0.9176 0.3975 58.4566 -9.3818)" class="st5" width="1.4" height="0.8"/>
<rect x="32.1" y="40.6" transform="matrix(0.1228 0.9924 -0.9924 0.1228 69.4334 3.449)" class="st5" width="1.4" height="0.8"/>
<rect x="25.7" y="23.3" class="st6" width="9.1" height="2.4"/>
<rect x="28.6" y="23.4" class="st5" width="3.1" height="2.2"/>
<polyline class="st5" points="24.3,23.4 27.2,22 33,22 36,23.4 "/>
<polygon class="st5" points="28.1,21 30.2,18.9 32.3,21 "/>
<rect x="27.8" y="21.4" class="st5" width="4.6" height="0.3"/>
<polyline class="st5" points="32.4,21.4 32.7,21.7 32.4,21.7 "/>
<polyline class="st5" points="27.8,21.4 27.5,21.7 27.8,21.7 "/>
<rect x="25.5" y="25.8" class="st5" width="9.3" height="0.6"/>
<polyline class="st5" points="26,27 30,27 26,28.7 "/>
<rect x="25.5" y="27" class="st5" width="0.5" height="1.7"/>
<polyline class="st5" points="26,27 30,27 26,28.7 "/>
<rect x="25.5" y="27" class="st5" width="0.5" height="1.7"/>
<polyline class="st5" points="35,27 30.5,27 34.8,28.7 "/>
<rect x="34.8" y="27" class="st5" width="0.4" height="1.7"/>
<rect x="21.5" y="32.6" class="st5" width="1.9" height="5.1"/>
<rect x="37.3" y="33" class="st5" width="2" height="5"/>
<rect x="36.6" y="32.6" class="st5" width="0.7" height="2.4"/>
<rect x="35.8" y="32.6" class="st5" width="0.9" height="1.6"/>
<rect x="35.1" y="31.9" class="st5" width="0.7" height="1.5"/>
<rect x="34.3" y="31.9" class="st5" width="0.8" height="0.8"/>
<rect x="32.8" y="31.2" class="st5" width="1.9" height="0.7"/>
<rect x="32.3" y="30.4" class="st5" width="0.5" height="1.5"/>
<rect x="29.2" y="29.7" class="st5" width="2.4" height="1.5"/>
<rect x="31.5" y="30.5" class="st5" width="0.8" height="0.8"/>
<rect x="23.4" y="32.6" class="st5" width="0.7" height="2.4"/>
<rect x="24.1" y="32.6" class="st5" width="0.9" height="1.6"/>
<rect x="25" y="31.9" class="st5" width="0.7" height="1.5"/>
<rect x="25.6" y="31.9" class="st5" width="0.8" height="0.8"/>
<rect x="26" y="31.2" class="st5" width="1.9" height="0.7"/>
<rect x="27.9" y="30.5" class="st5" width="0.5" height="1.5"/>
<rect x="28.4" y="30.5" class="st5" width="0.8" height="0.8"/>
<rect x="30" y="27" class="st5" width="0.4" height="2.7"/>
<rect x="28.7" y="28.3" class="st5" width="1.4" height="0.6"/>
<rect x="28.1" y="28.3" class="st5" width="0.6" height="0.7"/>
<rect x="26.7" y="29.1" class="st5" width="2" height="0.6"/>
<rect x="26.1" y="29.1" class="st5" width="0.6" height="0.7"/>
<rect x="24.3" y="29.7" class="st5" width="2.4" height="0.6"/>
<rect x="23.7" y="29.7" class="st5" width="0.6" height="1"/>
<rect x="21.8" y="30.7" class="st5" width="2.4" height="0.6"/>
<rect x="21.3" y="30.7" class="st5" width="0.5" height="1"/>
<rect x="19.4" y="31.7" class="st5" width="2.4" height="0.6"/>
<rect x="18.8" y="31.7" class="st5" width="0.6" height="1"/>
<rect x="17" y="32.6" class="st5" width="2.4" height="0.6"/>
<rect x="16.4" y="32.6" class="st5" width="0.6" height="1"/>
<rect x="30.5" y="28.3" class="st5" width="1.4" height="0.6"/>
<rect x="31.9" y="28.3" class="st5" width="0.6" height="0.7"/>
<rect x="31.9" y="29.1" class="st5" width="2" height="0.6"/>
<rect x="33.9" y="29.1" class="st5" width="0.6" height="0.7"/>
<rect x="33.9" y="29.7" class="st5" width="2.4" height="0.6"/>
<rect x="36.4" y="29.7" class="st5" width="0.6" height="1"/>
<rect x="36.4" y="30.7" class="st5" width="2.4" height="0.6"/>
<rect x="38.8" y="30.7" class="st5" width="0.6" height="1"/>
<rect x="38.8" y="31.7" class="st5" width="2.4" height="0.6"/>
<rect x="41.2" y="31.7" class="st5" width="0.7" height="1"/>
<rect x="41.2" y="32.6" class="st5" width="2.4" height="0.6"/>
<rect x="43.6" y="32.6" class="st5" width="0.6" height="1"/>
<rect x="16.6" y="34.4" class="st5" width="1.6" height="2.6"/>
<rect x="18.2" y="35.3" class="st5" width="2.1" height="0.9"/>
<rect x="19" y="32.6" class="st5" width="2.6" height="0.9"/>
<rect x="19" y="33.5" class="st5" width="1.3" height="1.8"/>
<rect x="42.7" y="34.7" class="st5" width="1.6" height="2.6"/>
<rect x="40.6" y="35.7" class="st5" width="2.1" height="0.9"/>
<rect x="39.4" y="33" class="st5" width="2.6" height="0.9"/>
<rect x="40.6" y="33.9" class="st5" width="1.3" height="1.8"/>
<text transform="matrix(1 0 0 1 26.3755 37.3361)" class="st5 st7 st8">2002</text>
<path class="st0" d="M38.3,27.2c0,0-0.7-2.1-0.4-2c0.2,0.1,0.3-0.4,0.3-0.4c0-0.1-0.5-1.3-0.5-1.4s0.2-0.6,0.1-0.4
	c-0.1,0.2,0,1.2,0,1.2l0.7,3.1"/>
<polyline class="st5" points="37.9,27 38.1,27 38.7,27 39.4,31 37,31 "/>
<polyline class="st5" points="23,27 22.7,27 22.2,27 21.5,31 24,31 "/>
<polyline class="st5" points="39.9,28.1 40.1,28 40.7,28 41.4,32 39,32 "/>
<path class="st1" d="M20.6,28.2c0,0,0.9-2.1,0.6-2c-0.3,0.1-0.4-0.4-0.4-0.4c0-0.1,0.6-1.3,0.6-1.4s-0.2-0.6-0.1-0.4
	c0.1,0.2,0,1.2,0,1.2l-0.9,3.1"/>
<polyline class="st5" points="21.6,31.3 20.9,28 20.6,28 20.1,28 19.5,32 21.7,32 21.6,31.3 "/>
</svg>
